<svg width="44" height="44" viewBox="0 0 44 44" fill="none" xmlns="http://www.w3.org/2000/svg">
<path d="M22 0.5C33.8741 0.5 43.5 10.1259 43.5 22C43.5 33.8741 33.8741 43.5 22 43.5C10.1259 43.5 0.5 33.8741 0.5 22C0.5 10.1259 10.1259 0.5 22 0.5Z" fill="#2C2C2C"/>
<path d="M22 0.5C33.8741 0.5 43.5 10.1259 43.5 22C43.5 33.8741 33.8741 43.5 22 43.5C10.1259 43.5 0.5 33.8741 0.5 22C0.5 10.1259 10.1259 0.5 22 0.5Z" stroke="#2C2C2C" stroke-linecap="round"/>
<g clip-path="url(#clip0_96_686)">
<path d="M21.1665 15.3332H15.3332C14.8911 15.3332 14.4672 15.5088 14.1547 15.8214C13.8421 16.1339 13.6665 16.5578 13.6665 16.9999V28.6665C13.6665 29.1086 13.8421 29.5325 14.1547 29.845C14.4672 30.1576 14.8911 30.3332 15.3332 30.3332H26.9998C27.4419 30.3332 27.8658 30.1576 28.1783 29.845C28.4909 29.5325 28.6665 29.1086 28.6665 28.6665V22.8332M27.4165 14.0832C27.748 13.7517 28.1977 13.5654 28.6665 13.5654C29.1353 13.5654 29.585 13.7517 29.9165 14.0832C30.248 14.4147 30.4343 14.8644 30.4343 15.3332C30.4343 15.802 30.248 16.2517 29.9165 16.5832L21.9998 24.4999L18.6665 25.3332L19.4998 21.9999L27.4165 14.0832Z" stroke="#F5F5F5" stroke-width="2" stroke-linecap="round" stroke-linejoin="round"/>
</g>
<defs>
<clipPath id="clip0_96_686">
<rect width="20" height="20" fill="white" transform="translate(12 12)"/>
</clipPath>
</defs>
</svg>
